<svg xmlns="http://www.w3.org/2000/svg" width="32" height="32" fill="none" data-scaled="true" viewBox="0 0 32 32"><path fill="url(#paint0_linear)" d="M30 2H2V30H30V2Z"/><path fill="url(#paint1_linear)" d="M24.9001 7.09998H7.1001V24.9H24.9001V7.09998Z"/><path fill="url(#paint2_linear)" d="M27.5999 4.40002H4.3999V27.6H27.5999V4.40002V4.40002Z"/><path fill="url(#paint3_linear)" d="M27.5999 27.6V4.40002L24.8999 7.10002V24.9L27.5999 27.6Z"/><path fill="url(#paint4_linear)" d="M7.1 7.1H24.9L30 2H2L7.1 7.1Z"/><path fill="url(#paint5_linear)" d="M24.9 24.9H7.1L2 30H30L24.9 24.9Z"/><path fill="url(#paint6_linear)" d="M4.3999 27.6H27.5999L24.8999 24.9H7.0999L4.3999 27.6Z"/><path fill="url(#paint7_linear)" d="M27.5999 27.6V4.40002L24.8999 7.10002V24.9L27.5999 27.6Z"/><path fill="url(#paint8_linear)" d="M4.3999 27.6H27.5999L24.8999 24.9H7.0999L4.3999 27.6Z"/><path fill="url(#paint9_linear)" d="M7.1 24.9V7.1L2 2V30L7.1 24.9Z"/><path fill="url(#paint10_linear)" d="M4.4 4.4H27.6L30 2H2L4.4 4.4Z"/><path fill="url(#paint11_linear)" d="M27.5999 4.40002H4.3999L7.0999 7.10002H24.8999L27.5999 4.40002Z"/><path fill="url(#paint12_linear)" d="M27.5999 4.40002H4.3999L7.0999 7.10002H24.8999L27.5999 4.40002Z"/><path fill="url(#paint13_linear)" d="M27.6 27.6H4.4L2 30H30L27.6 27.6Z"/><path fill="url(#paint14_linear)" d="M27.6001 27.6L30.0001 30V2L27.6001 4.4V27.6Z"/><path fill="url(#paint15_linear)" d="M27.6 27.6H4.4L2 30H30L27.6 27.6Z"/><path fill="url(#paint16_linear)" d="M27.6 27.6H4.4L2 30H30L27.6 27.6Z"/><path fill="url(#paint17_linear)" d="M27.6 27.6H4.4L2 30H30L27.6 27.6Z"/><path fill="url(#paint18_linear)" d="M27.6 27.6H4.4L2 30H30L27.6 27.6Z"/><path fill="url(#paint19_linear)" d="M27.6001 27.6L30.0001 30V2L27.6001 4.4V27.6Z"/><path fill="url(#paint20_linear)" d="M27.6001 27.6L30.0001 30V2L27.6001 4.4V27.6Z"/><path fill="url(#paint21_linear)" d="M27.6001 27.6L30.0001 30V2L27.6001 4.4V27.6Z"/><path fill="url(#paint22_linear)" d="M27.6001 27.6L30.0001 30V2L27.6001 4.4V27.6Z"/><path fill="url(#paint23_linear)" d="M4.4 27.6V4.4L2 2V30L4.4 27.6Z"/><path fill="url(#paint24_linear)" d="M4.4 27.6V4.4L2 2V30L4.4 27.6Z"/><path fill="url(#paint25_linear)" d="M4.3999 4.40002V27.6L7.0999 24.9V7.10002L4.3999 4.40002Z"/><path fill="url(#paint26_linear)" d="M26 6H6V26H26V6Z"/><path fill="#fff" d="M15 22H8V23.6H15V22Z"/><path fill="#fff" d="M8 8.00641H11.2987C13.2141 8.00641 14.3846 9.17692 14.3846 10.7731C14.3846 12.582 13.0013 13.5397 11.1923 13.5397H9.80897V15.9872H8V8.00641ZM11.1923 12.05C12.0436 12.05 12.5756 11.5179 12.5756 10.8795C12.5756 10.0282 12.0436 9.60256 11.0859 9.60256H9.80897V12.05H11.1923Z"/><path fill="#fff" d="M15.2358 12.05C15.2358 9.709 16.9384 7.90002 19.3858 7.90002C20.8756 7.90002 21.8333 8.43208 22.5781 9.17695L21.514 10.4539C20.8756 9.92182 20.2371 9.60259 19.4923 9.60259C18.1089 9.60259 17.1512 10.6667 17.1512 12.05C17.1512 13.4334 18.1089 14.6039 19.4923 14.6039C20.4499 14.6039 20.982 14.2846 21.6205 13.6462L22.6846 14.8167C21.8333 15.668 20.982 16.2 19.3858 16.2C17.0448 16.0936 15.2358 14.2846 15.2358 12.05Z"/><defs><linearGradient id="paint0_linear" x1="33.13" x2="-6.422" y1="33.13" y2="-6.421" gradientUnits="userSpaceOnUse"><stop offset=".347" stop-color="#C8EA23"/><stop offset=".856" stop-color="#10E899"/></linearGradient><linearGradient id="paint1_linear" x1="26.901" x2="1.732" y1="26.901" y2="1.732" gradientUnits="userSpaceOnUse"><stop offset=".347" stop-color="#087CFA"/><stop offset=".856" stop-color="#FE2857"/><stop offset="1" stop-color="#FE2857"/></linearGradient><linearGradient id="paint2_linear" x1="30.19" x2="-2.573" y1="30.19" y2="-2.573" gradientUnits="userSpaceOnUse"><stop offset="0" stop-color="#FCF84A"/><stop offset=".282" stop-color="#C1F834"/><stop offset=".785" stop-color="#10E899"/></linearGradient><linearGradient id="paint3_linear" x1="25.445" x2="28.651" y1="16" y2="16" gradientUnits="userSpaceOnUse"><stop offset=".27" stop-color="#FFC320"/><stop offset="1" stop-color="#FDB60D" stop-opacity="0"/></linearGradient><linearGradient id="paint4_linear" x1="36.445" x2="-2.49" y1="4.545" y2="4.545" gradientUnits="userSpaceOnUse"><stop offset=".258" stop-color="#EFE50C"/><stop offset=".577" stop-color="#BEFF26"/><stop offset=".875" stop-color="#00C66E"/></linearGradient><linearGradient id="paint5_linear" x1=".579" x2="32.863" y1="27.454" y2="27.454" gradientUnits="userSpaceOnUse"><stop offset=".024" stop-color="#F3DF00"/><stop offset=".496" stop-color="#DDFF18"/><stop offset="1" stop-color="#97E578"/></linearGradient><linearGradient id="paint6_linear" x1="15.966" x2="15.966" y1="25.444" y2="28.65" gradientUnits="userSpaceOnUse"><stop offset=".27" stop-color="#FFC320"/><stop offset="1" stop-color="#FDB60D" stop-opacity="0"/></linearGradient><linearGradient id="paint7_linear" x1="25.445" x2="28.651" y1="16" y2="16" gradientUnits="userSpaceOnUse"><stop offset=".27" stop-color="#A8C320"/><stop offset="1" stop-color="#FDB60D" stop-opacity="0"/></linearGradient><linearGradient id="paint8_linear" x1="15.966" x2="15.966" y1="25.444" y2="28.65" gradientUnits="userSpaceOnUse"><stop offset=".27" stop-color="#A8C320"/><stop offset="1" stop-color="#FDB60D" stop-opacity="0"/></linearGradient><linearGradient id="paint9_linear" x1="4.546" x2="4.546" y1="29.535" y2="1.535" gradientUnits="userSpaceOnUse"><stop offset=".258" stop-color="#EFE50C"/><stop offset=".577" stop-color="#BEFF26"/><stop offset=".875" stop-color="#00C66E"/></linearGradient><linearGradient id="paint10_linear" x1="15.285" x2="5.15" y1="3.015" y2="6.895" gradientUnits="userSpaceOnUse"><stop offset=".102" stop-color="#A5FF21" stop-opacity="0"/><stop offset=".822" stop-color="#14EB1F"/><stop offset="1" stop-color="#fff" stop-opacity=".9"/></linearGradient><linearGradient id="paint11_linear" x1="24.465" x2="9.738" y1="2.216" y2="7.517" gradientUnits="userSpaceOnUse"><stop offset=".018" stop-color="#99C81D"/><stop offset=".723" stop-color="#10C299" stop-opacity="0"/></linearGradient><linearGradient id="paint12_linear" x1="24.465" x2="9.738" y1="2.216" y2="7.517" gradientUnits="userSpaceOnUse"><stop offset=".019" stop-color="#8CC81D"/><stop offset=".723" stop-color="#10C23B" stop-opacity=".4"/></linearGradient><linearGradient id="paint13_linear" x1="32.992" x2="6.908" y1="31.857" y2="27.472" gradientUnits="userSpaceOnUse"><stop offset="0" stop-color="#FCF84A" stop-opacity="0"/><stop offset="1" stop-color="#FDD200"/></linearGradient><linearGradient id="paint14_linear" x1="28.799" x2="28.799" y1="29.627" y2="1.951" gradientUnits="userSpaceOnUse"><stop offset="0" stop-color="#FCF84A" stop-opacity="0"/><stop offset="1" stop-color="#FDD200"/></linearGradient><linearGradient id="paint15_linear" x1="16" x2="16" y1="27.066" y2="30.742" gradientUnits="userSpaceOnUse"><stop offset="0" stop-color="#FCF84A" stop-opacity="0"/><stop offset="1" stop-color="#FDD200"/></linearGradient><linearGradient id="paint16_linear" x1="16" x2="16" y1="27.066" y2="30.742" gradientUnits="userSpaceOnUse"><stop offset=".071" stop-color="#FFFFA3" stop-opacity=".5"/><stop offset=".564" stop-color="#FCF84A" stop-opacity="0"/></linearGradient><linearGradient id="paint17_linear" x1="16" x2="16" y1="30.009" y2="27.18" gradientUnits="userSpaceOnUse"><stop offset=".071" stop-color="#97DF1E" stop-opacity=".5"/><stop offset=".564" stop-color="#FCF84A" stop-opacity="0"/></linearGradient><linearGradient id="paint18_linear" x1="26.004" x2="-1.5" y1="30.591" y2="26.191" gradientUnits="userSpaceOnUse"><stop offset=".563" stop-color="#A5FF21" stop-opacity="0"/><stop offset="1" stop-color="#D7BE00" stop-opacity=".9"/></linearGradient><linearGradient id="paint19_linear" x1="27.225" x2="30.62" y1="16" y2="16" gradientUnits="userSpaceOnUse"><stop offset="0" stop-color="#FCF84A" stop-opacity="0"/><stop offset="1" stop-color="#FDD200"/></linearGradient><linearGradient id="paint20_linear" x1="27.225" x2="30.62" y1="16" y2="16" gradientUnits="userSpaceOnUse"><stop offset=".071" stop-color="#FFFFA3" stop-opacity=".5"/><stop offset=".564" stop-color="#FCF84A" stop-opacity="0"/></linearGradient><linearGradient id="paint21_linear" x1="29.71" x2="28.067" y1="16" y2="16" gradientUnits="userSpaceOnUse"><stop offset=".071" stop-color="#97DF1E" stop-opacity=".5"/><stop offset=".564" stop-color="#FCF84A" stop-opacity="0"/></linearGradient><linearGradient id="paint22_linear" x1="29.046" x2="27.02" y1="16.503" y2="2.522" gradientUnits="userSpaceOnUse"><stop offset=".563" stop-color="#A5FF21" stop-opacity="0"/><stop offset="1" stop-color="#D7BE00" stop-opacity=".9"/></linearGradient><linearGradient id="paint23_linear" x1="1.434" x2="5.885" y1="21.948" y2="3.948" gradientUnits="userSpaceOnUse"><stop offset=".102" stop-color="#A5FF21" stop-opacity="0"/><stop offset=".822" stop-color="#14EB1F"/><stop offset="1" stop-color="#fff" stop-opacity=".9"/></linearGradient><linearGradient id="paint24_linear" x1="3.008" x2=".514" y1="15.947" y2="30.725" gradientUnits="userSpaceOnUse"><stop offset=".563" stop-color="#A5FF21" stop-opacity="0"/><stop offset="1" stop-color="#D7BE00" stop-opacity=".9"/></linearGradient><linearGradient id="paint25_linear" x1="1.945" x2="7.574" y1="17.372" y2="14.23" gradientUnits="userSpaceOnUse"><stop offset=".019" stop-color="#8CC81D"/><stop offset=".723" stop-color="#10C23B" stop-opacity=".4"/></linearGradient><linearGradient id="paint26_linear" x1="6.03" x2="23.554" y1="6.03" y2="23.554" gradientUnits="userSpaceOnUse"><stop offset="0" stop-color="#298B2A"/><stop offset=".092" stop-color="#216F21"/><stop offset=".293" stop-color="#103510"/><stop offset=".69" stop-color="#051005"/><stop offset=".914"/></linearGradient></defs><path fill="#FDB60D" d="M28.0943 32H11.9057C11.3928 32 10.8849 31.8989 10.411 31.7026C9.93718 31.5064 9.50663 31.2188 9.14395 30.8561C8.78128 30.4934 8.49358 30.0628 8.2973 29.589C8.10102 29.1151 8 28.6073 8 28.0944V23.9056C8 23.3927 8.10102 22.8849 8.2973 22.411C8.49358 21.9372 8.78128 21.5066 9.14395 21.1439C9.50663 20.7812 9.93718 20.4935 10.411 20.2972C10.8849 20.101 11.3928 20 11.9057 20H28.0943C28.6072 20 29.1151 20.101 29.589 20.2972C30.0628 20.4935 30.4934 20.7812 30.856 21.1439C31.2187 21.5066 31.5064 21.9372 31.7027 22.411C31.899 22.8849 32 23.3927 32 23.9056V28.0944C32 29.1302 31.5885 30.1236 30.856 30.8561C30.1236 31.5885 29.1302 32 28.0943 32V32Z"/><path fill="#000" d="M12.4562 23.3781H16.5756V24.4473H13.6498V25.5551H16.2246V26.6238H13.6498V27.7708H16.6147V28.8395H12.4562V23.3781Z"/><path fill="#000" d="M19.5557 23.3395H20.6635L23.0041 28.8395H21.748L21.2487 27.6147H18.9395L18.4402 28.8395H17.2156L19.5557 23.3395ZM20.8199 26.5537L20.0941 24.7825L19.3687 26.5537H20.8199Z"/><path fill="#000" d="M23.8468 23.378H26.0782C26.3431 23.3466 26.6118 23.3722 26.866 23.4531C27.1203 23.534 27.3543 23.6684 27.5523 23.8473C27.7503 24.0261 27.9078 24.2453 28.0141 24.49C28.1205 24.7347 28.1732 24.9992 28.1689 25.266V25.2817C28.1666 25.5583 28.1056 25.8313 27.9899 26.0825C27.8742 26.3337 27.7064 26.5575 27.4977 26.739C27.289 26.9205 27.0441 27.0555 26.7792 27.1352C26.5144 27.2149 26.2356 27.2375 25.9614 27.2013H25.0486V28.8395H23.8468V23.378ZM26 26.1321C26.118 26.1471 26.238 26.1369 26.3519 26.1024C26.4658 26.0678 26.5711 26.0097 26.6609 25.9316C26.7508 25.8536 26.8232 25.7573 26.8733 25.6494C26.9234 25.5414 26.9502 25.4242 26.9518 25.3052V25.2894C26.9518 24.7515 26.5775 24.4625 25.9766 24.4625H25.0486V26.1321H26Z"/></svg>