<svg xmlns="http://www.w3.org/2000/svg" width="64" height="64" fill="none" viewBox="0 0 64 64"><path fill="url(#paint0_linear)" d="M59 5H5V59H59V5Z"/><path fill="url(#paint1_linear)" d="M49.2001 14.8H14.8V49.2H49.2001V14.8Z"/><path fill="url(#paint2_linear)" d="M54.4001 9.59998H9.6001V54.3H54.3001V9.59998H54.4001Z"/><path fill="url(#paint3_linear)" d="M54.4 54.4V9.59998L49.2 14.8V49.2L54.4 54.4Z"/><path fill="url(#paint4_linear)" d="M14.8 14.8H49.2L59 5H5L14.8 14.8Z"/><path fill="url(#paint5_linear)" d="M49.2 49.2H14.8L5 59H59L49.2 49.2Z"/><path fill="url(#paint6_linear)" d="M9.6001 54.4H54.4001L49.2001 49.2H14.8001L9.6001 54.4Z"/><path fill="url(#paint7_linear)" d="M54.4 54.4V9.59998L49.2 14.8V49.2L54.4 54.4Z"/><path fill="url(#paint8_linear)" d="M9.6001 54.4H54.4001L49.2001 49.2H14.8001L9.6001 54.4Z"/><path fill="url(#paint9_linear)" d="M14.8 49.2V14.8L5 5V59L14.8 49.2Z"/><path fill="url(#paint10_linear)" d="M9.6 9.6H54.4L59 5H5L9.6 9.6Z"/><path fill="url(#paint11_linear)" d="M54.4001 9.59998H9.6001L14.8001 14.8H49.2001L54.4001 9.59998Z"/><path fill="url(#paint12_linear)" d="M54.4001 9.59998H9.6001L14.8001 14.8H49.2001L54.4001 9.59998Z"/><path fill="url(#paint13_linear)" d="M54.4 54.4H9.6L5 59H59L54.4 54.4Z"/><path fill="url(#paint14_linear)" d="M54.3999 54.4L58.9999 59V5L54.3999 9.6V54.4Z"/><path fill="url(#paint15_linear)" d="M54.4 54.4H9.6L5 59H59L54.4 54.4Z"/><path fill="url(#paint16_linear)" d="M54.4 54.4H9.6L5 59H59L54.4 54.4Z"/><path fill="url(#paint17_linear)" d="M54.4 54.4H9.6L5 59H59L54.4 54.4Z"/><path fill="url(#paint18_linear)" d="M54.4 54.4H9.6L5 59H59L54.4 54.4Z"/><path fill="url(#paint19_linear)" d="M54.3999 54.4L58.9999 59V5L54.3999 9.6V54.4Z"/><path fill="url(#paint20_linear)" d="M54.3999 54.4L58.9999 59V5L54.3999 9.6V54.4Z"/><path fill="url(#paint21_linear)" d="M54.3999 54.4L58.9999 59V5L54.3999 9.6V54.4Z"/><path fill="url(#paint22_linear)" d="M54.3999 54.4L58.9999 59V5L54.3999 9.6V54.4Z"/><path fill="url(#paint23_linear)" d="M9.6 54.4V9.6L5 5V59L9.6 54.4Z"/><path fill="url(#paint24_linear)" d="M9.6 54.4V9.6L5 5V59L9.6 54.4Z"/><path fill="url(#paint25_linear)" d="M9.6001 9.59998V54.4L14.8001 49.2V14.8L9.6001 9.59998Z"/><path fill="url(#paint26_linear)" d="M52 12H12V52H52V12Z"/><path fill="#fff" d="M32 44.45H17V46.95H32V44.45Z"/><path fill="#fff" d="M17 16.9H23.1C26.7 16.9 28.8 19 28.8 22.1C28.8 25.6 26.1 27.4 22.7 27.4H20.3V31.9H17V16.9ZM22.9 24.5C24.5 24.5 25.5 23.5 25.5 22.2C25.5 20.7 24.5 19.9 22.8 19.9H20.3V24.5H22.9Z"/><path fill="#fff" d="M30.7 24.4C30.7 20.1 33.9 16.6 38.5 16.6C41.3 16.6 43 17.5 44.4 18.9L42.2999 21.3C41.0999 20.3 40 19.6 38.5 19.6C36 19.6 34.2 21.7 34.2 24.3C34.2 26.9 36 29 38.5 29C40.2 29 41.3 28.3 42.4 27.2L44.5 29.3C43 30.9 41.1999 32 38.4 32C33.9 32.1 30.7 28.7 30.7 24.4Z"/><defs><linearGradient id="paint0_linear" x1="65.037" x2="-11.242" y1="65.036" y2="-11.241" gradientUnits="userSpaceOnUse"><stop offset=".347" stop-color="#C8EA23"/><stop offset=".856" stop-color="#10E899"/></linearGradient><linearGradient id="paint1_linear" x1="53.023" x2="4.483" y1="53.023" y2="4.483" gradientUnits="userSpaceOnUse"><stop offset=".347" stop-color="#087CFA"/><stop offset=".856" stop-color="#FE2857"/><stop offset="1" stop-color="#FE2857"/></linearGradient><linearGradient id="paint2_linear" x1="59.367" x2="-3.82" y1="59.366" y2="-3.82" gradientUnits="userSpaceOnUse"><stop offset="0" stop-color="#FCF84A"/><stop offset=".282" stop-color="#C1F834"/><stop offset=".785" stop-color="#10E899"/></linearGradient><linearGradient id="paint3_linear" x1="50.216" x2="56.399" y1="32" y2="32" gradientUnits="userSpaceOnUse"><stop offset=".27" stop-color="#FFC320"/><stop offset="1" stop-color="#FDB60D" stop-opacity="0"/></linearGradient><linearGradient id="paint4_linear" x1="71.43" x2="-3.66" y1="9.909" y2="9.909" gradientUnits="userSpaceOnUse"><stop offset=".258" stop-color="#EFE50C"/><stop offset=".577" stop-color="#BEFF26"/><stop offset=".875" stop-color="#00C66E"/></linearGradient><linearGradient id="paint5_linear" x1="2.259" x2="64.521" y1="54.091" y2="54.091" gradientUnits="userSpaceOnUse"><stop offset=".024" stop-color="#F3DF00"/><stop offset=".496" stop-color="#DDFF18"/><stop offset="1" stop-color="#97E578"/></linearGradient><linearGradient id="paint6_linear" x1="31.968" x2="31.968" y1="50.214" y2="56.398" gradientUnits="userSpaceOnUse"><stop offset=".27" stop-color="#FFC320"/><stop offset="1" stop-color="#FDB60D" stop-opacity="0"/></linearGradient><linearGradient id="paint7_linear" x1="50.216" x2="56.399" y1="32" y2="32" gradientUnits="userSpaceOnUse"><stop offset=".27" stop-color="#A8C320"/><stop offset="1" stop-color="#FDB60D" stop-opacity="0"/></linearGradient><linearGradient id="paint8_linear" x1="31.968" x2="31.968" y1="50.214" y2="56.398" gradientUnits="userSpaceOnUse"><stop offset=".27" stop-color="#A8C320"/><stop offset="1" stop-color="#FDB60D" stop-opacity="0"/></linearGradient><linearGradient id="paint9_linear" x1="9.909" x2="9.909" y1="58.103" y2="4.103" gradientUnits="userSpaceOnUse"><stop offset=".258" stop-color="#EFE50C"/><stop offset=".577" stop-color="#BEFF26"/><stop offset=".875" stop-color="#00C66E"/></linearGradient><linearGradient id="paint10_linear" x1="30.621" x2="11.074" y1="6.958" y2="14.441" gradientUnits="userSpaceOnUse"><stop offset=".102" stop-color="#A5FF21" stop-opacity="0"/><stop offset=".822" stop-color="#14EB1F"/><stop offset="1" stop-color="#fff" stop-opacity=".9"/></linearGradient><linearGradient id="paint11_linear" x1="48.326" x2="19.924" y1="5.415" y2="15.64" gradientUnits="userSpaceOnUse"><stop offset=".018" stop-color="#99C81D"/><stop offset=".723" stop-color="#10C299" stop-opacity="0"/></linearGradient><linearGradient id="paint12_linear" x1="48.326" x2="19.924" y1="5.415" y2="15.64" gradientUnits="userSpaceOnUse"><stop offset=".019" stop-color="#8CC81D"/><stop offset=".723" stop-color="#10C23B" stop-opacity=".4"/></linearGradient><linearGradient id="paint13_linear" x1="64.77" x2="14.466" y1="62.582" y2="54.124" gradientUnits="userSpaceOnUse"><stop offset="0" stop-color="#FCF84A" stop-opacity="0"/><stop offset="1" stop-color="#FDD200"/></linearGradient><linearGradient id="paint14_linear" x1="56.683" x2="56.683" y1="58.28" y2="4.906" gradientUnits="userSpaceOnUse"><stop offset="0" stop-color="#FCF84A" stop-opacity="0"/><stop offset="1" stop-color="#FDD200"/></linearGradient><linearGradient id="paint15_linear" x1="32" x2="32" y1="53.342" y2="60.432" gradientUnits="userSpaceOnUse"><stop offset="0" stop-color="#FCF84A" stop-opacity="0"/><stop offset="1" stop-color="#FDD200"/></linearGradient><linearGradient id="paint16_linear" x1="32" x2="32" y1="53.342" y2="60.432" gradientUnits="userSpaceOnUse"><stop offset=".071" stop-color="#FFFFA3" stop-opacity=".5"/><stop offset=".564" stop-color="#FCF84A" stop-opacity="0"/></linearGradient><linearGradient id="paint17_linear" x1="32" x2="32" y1="59.017" y2="53.561" gradientUnits="userSpaceOnUse"><stop offset=".071" stop-color="#97DF1E" stop-opacity=".5"/><stop offset=".564" stop-color="#FCF84A" stop-opacity="0"/></linearGradient><linearGradient id="paint18_linear" x1="51.293" x2="-1.751" y1="60.14" y2="51.653" gradientUnits="userSpaceOnUse"><stop offset=".563" stop-color="#A5FF21" stop-opacity="0"/><stop offset="1" stop-color="#D7BE00" stop-opacity=".9"/></linearGradient><linearGradient id="paint19_linear" x1="53.647" x2="60.197" y1="32" y2="32" gradientUnits="userSpaceOnUse"><stop offset="0" stop-color="#FCF84A" stop-opacity="0"/><stop offset="1" stop-color="#FDD200"/></linearGradient><linearGradient id="paint20_linear" x1="53.647" x2="60.197" y1="32" y2="32" gradientUnits="userSpaceOnUse"><stop offset=".071" stop-color="#FFFFA3" stop-opacity=".5"/><stop offset=".564" stop-color="#FCF84A" stop-opacity="0"/></linearGradient><linearGradient id="paint21_linear" x1="58.441" x2="55.272" y1="32" y2="32" gradientUnits="userSpaceOnUse"><stop offset=".071" stop-color="#97DF1E" stop-opacity=".5"/><stop offset=".564" stop-color="#FCF84A" stop-opacity="0"/></linearGradient><linearGradient id="paint22_linear" x1="57.159" x2="53.252" y1="32.97" y2="6.006" gradientUnits="userSpaceOnUse"><stop offset=".563" stop-color="#A5FF21" stop-opacity="0"/><stop offset="1" stop-color="#D7BE00" stop-opacity=".9"/></linearGradient><linearGradient id="paint23_linear" x1="3.908" x2="12.492" y1="43.471" y2="8.757" gradientUnits="userSpaceOnUse"><stop offset=".102" stop-color="#A5FF21" stop-opacity="0"/><stop offset=".822" stop-color="#14EB1F"/><stop offset="1" stop-color="#fff" stop-opacity=".9"/></linearGradient><linearGradient id="paint24_linear" x1="6.944" x2="2.135" y1="31.897" y2="60.399" gradientUnits="userSpaceOnUse"><stop offset=".563" stop-color="#A5FF21" stop-opacity="0"/><stop offset="1" stop-color="#D7BE00" stop-opacity=".9"/></linearGradient><linearGradient id="paint25_linear" x1="4.894" x2="15.75" y1="34.646" y2="28.587" gradientUnits="userSpaceOnUse"><stop offset=".019" stop-color="#8CC81D"/><stop offset=".723" stop-color="#10C23B" stop-opacity=".4"/></linearGradient><linearGradient id="paint26_linear" x1="12.061" x2="47.109" y1="12.061" y2="47.109" gradientUnits="userSpaceOnUse"><stop offset="0" stop-color="#298B2A"/><stop offset=".092" stop-color="#216F21"/><stop offset=".293" stop-color="#103510"/><stop offset=".69" stop-color="#051005"/><stop offset=".914"/></linearGradient></defs><path fill="#FDB60D" d="M56.1887 64H23.8113C21.7397 64 19.7528 63.1771 18.2879 61.7122C16.823 60.2473 16 58.2604 16 56.1887V47.8113C16 46.7855 16.202 45.7697 16.5946 44.822C16.9872 43.8743 17.5626 43.0132 18.2879 42.2878C19.0133 41.5625 19.8743 40.9872 20.8221 40.5946C21.7698 40.202 22.7855 40 23.8113 40H56.1887C58.2604 40 60.2472 40.8229 61.7121 42.2878C63.177 43.7527 64 45.7396 64 47.8113V56.1887C64 58.2604 63.177 60.2473 61.7121 61.7122C60.2472 63.1771 58.2604 64 56.1887 64Z"/><path fill="#000" d="M24.9124 46.7561H33.1512V48.8945H27.2997V51.1102H32.4492V53.2476H27.2997V55.5415H33.2294V57.679H24.9124V46.7561Z"/><path fill="#000" d="M39.1113 46.679H41.327L46.0082 57.679H43.4959L42.4973 55.2296H37.8791L36.8805 57.679H34.4312L39.1113 46.679ZM41.6399 53.1074L40.1882 49.5651L38.7375 53.1074H41.6399Z"/><path fill="#000" d="M47.6936 46.7561H52.1564C54.7621 46.7561 56.3378 48.3013 56.3378 50.5321V50.5636C56.3378 53.0911 54.372 54.4026 51.9228 54.4026H50.0972V57.6788H47.6936L47.6936 46.7561ZM51.9999 52.2643C52.2361 52.2943 52.4759 52.274 52.7037 52.205C52.9315 52.1359 53.1422 52.0194 53.3219 51.8633C53.5016 51.7072 53.6463 51.5149 53.7466 51.299C53.8468 51.083 53.9004 50.8484 53.9037 50.6104V50.5789C53.9037 49.503 53.155 48.925 51.9532 48.925H50.0972V52.2643H51.9999Z"/></svg>